<svg width="214" height="221" fill="none" xmlns="http://www.w3.org/2000/svg"><path d="M174.096 107.295a3.614 3.614 0 0 1 .08-1.177 4.798 4.798 0 0 1 3.697-3.666 4.91 4.91 0 0 1 2.564.155 4.898 4.898 0 0 1 2.299 1.658 4.862 4.862 0 0 1 .096 5.77 4.531 4.531 0 0 1-1.002 1.052c-.37.288-.783.518-1.222.681a4.807 4.807 0 0 1-6.377-3.305 3.709 3.709 0 0 1-.115-1.168c.051.385.123.766.216 1.143a4.756 4.756 0 0 0 1.778 2.529 4.644 4.644 0 0 0 4.408.576 4.46 4.46 0 0 0 1.162-.651c.372-.28.696-.619.961-1.002a4.618 4.618 0 0 0-.09-5.47 4.46 4.46 0 0 0-1.002-.971 4.324 4.324 0 0 0-1.182-.611 4.651 4.651 0 0 0-2.439-.171 4.57 4.57 0 0 0-1.949.887 4.74 4.74 0 0 0-1.693 2.589c-.086.38-.15.765-.19 1.152Z" fill="#E0E0E0"/><path d="M168.251 104.791a.64.64 0 0 1-.161.05l-.501.13-1.938.501.03-.04c.025 1.132.055 2.625.095 4.428l-.05-.06 2.625.536h.045v.045c.267.923.654 1.808 1.152 2.63l.025.045-.025.04-1.387 2.294v-.115l3.19 3.08h-.125l2.239-1.467.055-.04.055.035c.84.462 1.735.814 2.665 1.047h.065v.07c.2.806.416 1.693.641 2.599l-.115-.09 4.433-.075-.12.095c.17-.816.36-1.713.546-2.625v-.07h.075c.92-.262 1.801-.646 2.619-1.142l.066-.04.065.04 2.289 1.393h-.156l3.081-3.186v.16l-1.468-2.244-.04-.065.035-.07c.468-.832.822-1.723 1.052-2.65v-.075h.075l2.605-.631-.1.125c-.025-1.502-.05-2.975-.07-4.433l.1.126-2.62-.551h-.075l-.025-.075a10.701 10.701 0 0 0-1.132-2.62l-.04-.065.04-.065 1.393-2.29v.156l-3.181-3.086h.145l-2.244 1.468-.06.035-.06-.035a10.773 10.773 0 0 0-2.655-1.052h-.07v-.065l-.631-2.605.11.085-4.433.066.095-.08c-.195.921-.38 1.783-.556 2.62v.054h-.055c-.924.26-1.81.64-2.634 1.132l-.046.03-.045-.03-2.249-1.392h.096l-3.096 3.175v-.075l1.448 2.254a11.1 11.1 0 0 0-.887 2.004c-.07.22-.12.391-.16.501-.04.11-.055.17-.055.17s0-.06.035-.175c.035-.115.07-.291.14-.501.213-.696.499-1.367.851-2.004v.045c-.4-.611-.886-1.342-1.477-2.234l-.025-.04.03-.03 3.07-3.2.045-.046.05.036 2.295 1.382h-.086c.834-.508 1.732-.9 2.67-1.167l-.07.07c.175-.831.356-1.698.546-2.62v-.08h.08l4.433-.08h.085v.085c.211.847.421 1.708.641 2.6l-.085-.08c.951.233 1.866.594 2.72 1.072h-.12l2.239-1.473.08-.05.07.065 3.191 3.08.07.07-.055.086-1.388 2.289v-.13c.507.837.9 1.738 1.167 2.679l-.1-.09 2.625.551h.1v.105c.027 1.46.052 2.936.075 4.428v.106l-.1.025-2.605.636.101-.095a11.175 11.175 0 0 1-1.072 2.719v-.135l1.462 2.244.06.085-.075.075-3.085 3.186-.07.07-.085-.05-2.29-1.397h.131c-.838.507-1.742.898-2.685 1.162l.09-.09c-.19.906-.381 1.803-.551 2.619v.095h-.1l-4.433.071h-.09v-.091l-.631-2.604.08.085a11.16 11.16 0 0 1-2.715-1.082h.115l-2.249 1.458-.065.045-.06-.055-3.181-3.091-.05-.05.035-.065 1.398-2.284v.085a10.992 10.992 0 0 1-1.147-2.675l.055.055-2.62-.556h-.05v-.05c0-1.808-.035-3.301-.05-4.433v-.035h.025l1.933-.451.501-.11.186-.08Z" fill="#E0E0E0"/><path fill-rule="evenodd" clip-rule="evenodd" d="M38.61 92.574c.261-1.05.66-2.06 1.186-3.005l-1.638-2.505 3.447-3.56 2.564 1.557a12.248 12.248 0 0 1 2.966-1.287l.61-2.93 4.96-.08.71 2.91c1.051.26 2.062.658 3.006 1.186l2.505-1.637 3.56 3.446-1.542 2.56c.56.926.992 1.923 1.287 2.965l2.93.61.08 4.96-2.91.71c-.26 1.051-.659 2.062-1.187 3.006l1.638 2.505-3.446 3.561-2.564-1.558c-.927.559-1.924.992-2.966 1.287l-.61 2.931-4.96.08-.71-2.91a12.132 12.132 0 0 1-3.006-1.187l-2.505 1.637-3.561-3.446 1.558-2.564a12.248 12.248 0 0 1-1.288-2.966l-2.93-.61-.08-4.96 2.91-.71-.015.004Zm6.51 2.81a5.319 5.319 0 1 0 5.23-5.404 5.32 5.32 0 0 0-5.204 5.404h-.025ZM152.843 79.746a3.51 3.51 0 0 1 .341-.866l-.471-.727 1.002-1.026.736.45c.268-.161.556-.287.857-.375l.175-.847h1.433l.205.837c.302.077.594.194.867.345l.726-.47 1.027 1.001-.446.742c.16.268.284.556.371.856l.846.175v1.433l-.836.205a3.753 3.753 0 0 1-.346.867l.476.726-1.002 1.002-.741-.45a3.455 3.455 0 0 1-.857.37l-.175.846-1.433.025-.205-.841a3.512 3.512 0 0 1-.867-.34l-.726.47-1.027-1.002.451-.741a3.434 3.434 0 0 1-.371-.856l-.846-.176v-1.432l.841-.206-.005.005Zm1.884.812a1.534 1.534 0 0 0 .975 1.405 1.538 1.538 0 1 0-.975-1.385v-.02Z" fill="#E0E0E0"/><path fill-rule="evenodd" clip-rule="evenodd" d="M5.635 94.583c.114-.42.283-.822.501-1.197l-.656-1.002 1.368-1.428 1.001.621c.37-.22.767-.388 1.183-.5l.245-1.173 2.004-.035.285 1.162c.418.117.82.285 1.197.501l1.002-.65 1.422 1.377-.62 1.001c.218.372.386.772.5 1.188l1.172.245.035 1.978-1.167.286a5.01 5.01 0 0 1-.47 1.202l.65 1.002-1.377 1.422-1.002-.62c-.37.22-.77.388-1.187.5l-.245 1.172-2.004.035-.285-1.162a5.042 5.042 0 0 1-1.202-.475l-1.002.656-1.413-1.408.621-1.002c-.22-.37-.39-.77-.5-1.187l-1.173-.245-.035-1.979 1.162-.285h-.01Zm2.615 1.122a2.124 2.124 0 1 0 4.247-.07 2.124 2.124 0 0 0-4.247.07ZM185.837 62.676c.238-.961.604-1.886 1.087-2.75l-1.503-2.294 3.156-3.261 2.339 1.423a11.201 11.201 0 0 1 2.715-1.172l.561-2.685 4.533-.075.651 2.664c.961.24 1.886.605 2.75 1.087l2.294-1.502 3.256 3.15-1.422 2.344c.512.847.908 1.758 1.177 2.71l2.684.566.071 4.508-2.66.646a11.065 11.065 0 0 1-1.087 2.75l1.503 2.294-3.156 3.261-2.339-1.422a11.22 11.22 0 0 1-2.715 1.177l-.541 2.71-4.508.075-.651-2.665a11 11 0 0 1-2.75-1.087l-2.294 1.503-3.256-3.156 1.422-2.344a11.029 11.029 0 0 1-1.177-2.71l-2.679-.56-.076-4.539 2.66-.646h-.045Zm5.981 2.57a4.868 4.868 0 0 0 3.076 4.442 4.864 4.864 0 1 0-3.076-4.442Z" fill="#EBEBEB"/><path fill-rule="evenodd" clip-rule="evenodd" d="M12.828 138.266a9.974 9.974 0 0 1 1.002-2.505l-1.357-2.079 2.855-2.95 2.118 1.293a9.912 9.912 0 0 1 2.455-1.067l.5-2.43 4.103-.065.591 2.409a10.14 10.14 0 0 1 2.505 1.002l2.073-1.357 2.95 2.855-1.287 2.119c.461.767.818 1.593 1.062 2.454l2.43.501.07 4.102-2.415.591c-.22.876-.557 1.718-1.002 2.505l1.358 2.074-2.855 2.95-2.099-1.298c-.767.463-1.593.822-2.454 1.067l-.551 2.44-4.108.07-.586-2.409a10.224 10.224 0 0 1-2.504-1.002l-2.079 1.357-2.95-2.855 1.292-2.124a9.768 9.768 0 0 1-1.067-2.454l-2.43-.501-.064-4.107 2.41-.586h.034Zm5.41 2.324a4.405 4.405 0 0 0 2.783 4.032 4.406 4.406 0 0 0 5.668-5.851 4.402 4.402 0 0 0-4.119-2.654 4.396 4.396 0 0 0-3.092 1.339 4.398 4.398 0 0 0-1.24 3.134ZM98.957 53.34c.095-.38.238-.745.426-1.088l-.591-.901 1.247-1.288.921.561c.334-.2.693-.355 1.067-.46l.226-1.057 1.783-.03.255 1.047c.381.093.746.238 1.087.43l.902-.59 1.287 1.242-.541.926c.202.333.357.692.461 1.067l1.057.22.03 1.789-1.047.255c-.094.38-.239.746-.431 1.087l.591.902-1.242 1.287-.921-.561a4.45 4.45 0 0 1-1.072.46l-.221 1.058-1.788.03-.255-1.047a4.24 4.24 0 0 1-1.082-.431l-.907.591-1.282-1.242.56-.927a4.419 4.419 0 0 1-.465-1.067l-1.057-.22-.03-1.788 1.052-.256h-.02Zm2.354 1.001a1.916 1.916 0 0 0 2.322 1.845 1.918 1.918 0 1 0-2.322-1.835v-.01Z" fill="#F5F5F5"/><path d="M191.677 178.382c2.254-1.162 4.904-1.312 7.404-.901 1.347.225 2.744.626 3.661 1.633.917 1.006 1.087 2.785.035 3.651a3.462 3.462 0 0 1-2.304.586c-1.958 0-4.132-.366-5.695.812-.892.671-1.503 1.788-2.555 2.118a2.506 2.506 0 0 1-2.775-1.232 4.311 4.311 0 0 1-.31-3.181 4.85 4.85 0 0 1 2.539-3.486ZM186.498 168.404c1.378 1.969 4.052 1.318 5.295.116 1.242-1.202 1.763-2.941 2.244-4.599 1.092-3.791 2.188-7.773 1.377-11.635a6.448 6.448 0 0 0-1.503-3.161 3.368 3.368 0 0 0-3.2-1.062c-1.348.356-2.189 1.678-2.795 2.935a27.73 27.73 0 0 0-2.72 11.897c0 1.918.22 3.927 1.302 5.509ZM182.717 171.245c1.502-1.779 1.778-4.368 1.112-6.592-.667-2.224-2.169-4.113-3.902-5.655a20.94 20.94 0 0 0-7.013-4.123 7.449 7.449 0 0 0-3.141-.536 3.284 3.284 0 0 0-2.634 1.598c-.737 1.403-.035 3.101.731 4.508a53.399 53.399 0 0 0 4.613 6.958c1.373 1.773 2.951 3.506 5.044 4.322 2.094.817 4.278.712 5.385-.746" fill="#EBEBEB"/><path d="M186.403 198.097c.073-.293.115-.594.125-.896.065-.651.14-1.468.236-2.439.122-1.201.306-2.395.551-3.577a27.352 27.352 0 0 1 1.302-4.227 15.52 15.52 0 0 1 2.154-3.817 7.991 7.991 0 0 1 2.725-2.269 7.794 7.794 0 0 1 2.299-.717c.3-.01.599-.052.891-.125a3.814 3.814 0 0 0-.906 0 7.03 7.03 0 0 0-2.395.621 8.023 8.023 0 0 0-2.875 2.289 15.055 15.055 0 0 0-2.239 3.897 26.158 26.158 0 0 0-1.292 4.293 31.305 31.305 0 0 0-.476 3.621 52.745 52.745 0 0 0-.12 2.455c-.023.297-.017.596.02.891Z" fill="#E0E0E0"/><path d="M186.573 196.219a1.928 1.928 0 0 0 0-.416v-1.187c0-1.027 0-2.504.05-4.357.096-3.677.411-7.639 1.002-13.219.581-5.249 1.358-11.36 2.179-15.332.175-.902.351-1.713.501-2.425.15-.711.296-1.332.431-1.828s.2-.852.275-1.152c.043-.133.067-.271.07-.411-.06.125-.107.256-.14.391l-.345 1.137c-.156.501-.311 1.102-.501 1.813a42.693 42.693 0 0 0-.571 2.419 134.372 134.372 0 0 0-2.289 14.226c-.617 5.595-.892 10.689-.917 14.376 0 1.843 0 3.335.065 4.367.03.501.055.872.075 1.187.02.142.058.28.115.411Z" fill="#E0E0E0"/><path d="M186.598 186.397a8.06 8.06 0 0 0 0-1.243 34.079 34.079 0 0 0-.38-3.356 43.755 43.755 0 0 0-1.102-4.878 39.847 39.847 0 0 0-2.044-5.791 30.92 30.92 0 0 0-6.011-9.351 15.379 15.379 0 0 0-1.412-1.313c-.221-.185-.411-.365-.606-.501l-.546-.38a7.785 7.785 0 0 0-1.047-.666c-.055.08 1.478 1.001 3.421 3.05a32.477 32.477 0 0 1 5.855 9.317 45.763 45.763 0 0 1 2.059 5.735 50.229 50.229 0 0 1 1.162 4.843c.271 1.393.401 2.535.501 3.326.017.406.067.81.15 1.208ZM177.101 203.723l.987 13.484h17.321l.987-13.484h-19.295ZM198.46 198.408h-23.032v5.315h23.032v-5.315Z" fill="#E0E0E0"/><path d="M175.428 216.691v1.477h22.651v-1.477h-22.651Z" fill="#EBEBEB"/><path d="m177.572 220.758-1.062-2.59h20.747l-1.237 2.59h-18.448Z" fill="#E0E0E0"/><path d="M196.07 208.13s0 .045-.08.126l-.256.34-1.001 1.293-.045.06-.04-.06-2.47-3.417h.14l-2.439 3.457-.08.11-.085-.105-2.915-3.462h.17l-.16.201-2.59 3.246-.085.11-.08-.115-2.445-3.442h.146c-1.208 1.368-2.224 2.535-3.006 3.427l-.05.06-.045-.07-.942-1.583-.24-.421a.84.84 0 0 1-.075-.15.977.977 0 0 1 .105.135l.265.406 1.002 1.552h-.115c.766-.906 1.773-2.083 2.955-3.471l.075-.085.071.09 2.464 3.441h-.165l2.579-3.25.16-.201.081-.1.085.1 2.89 3.451h-.175l2.469-3.436.07-.1.07.1 2.43 3.466h-.091c.441-.531.792-.951 1.052-1.257l.281-.325.115-.121ZM196.636 203.632c0 .06-4.342.11-9.697.11-5.354 0-9.692-.05-9.692-.11s4.338-.105 9.692-.105c5.355 0 9.697.045 9.697.105ZM197.513 218.308c0 .061-4.719.111-10.519.111s-10.519-.05-10.519-.111c0-.06 4.719-.105 10.519-.105s10.519.05 10.519.105Z" fill="#F5F5F5"/><path d="M15.072 67.31c.299-.026.599-.026.897 0 .29 0 .646 0 1.052.03s.882.044 1.392.11c1.207.12 2.406.31 3.592.565 1.45.316 2.878.72 4.277 1.213a36.068 36.068 0 0 1 4.068 1.808 31.44 31.44 0 0 1 3.11 1.883c.436.28.802.571 1.137.812.336.24.606.465.827.656.238.182.462.381.671.596a5.27 5.27 0 0 1-.736-.501c-.23-.175-.501-.386-.852-.616-.35-.23-.711-.501-1.147-.782a36.774 36.774 0 0 0-3.12-1.818 38.546 38.546 0 0 0-4.048-1.778 38.877 38.877 0 0 0-4.237-1.252 36.085 36.085 0 0 0-3.562-.621c-.5-.075-.971-.1-1.382-.146-.41-.045-.756-.06-1.047-.075a5.708 5.708 0 0 1-.892-.085ZM5.79 123.114c.082-.087.173-.164.271-.231l.802-.606c.345-.265.781-.586 1.302-.926.52-.341 1.097-.752 1.773-1.148.676-.395 1.398-.856 2.214-1.287a95.72 95.72 0 0 1 2.62-1.337 54.641 54.641 0 0 1 6.271-2.465 55.536 55.536 0 0 1 6.547-1.597c1.002-.161 2.003-.331 2.915-.416.912-.085 1.768-.181 2.55-.226a63.137 63.137 0 0 1 2.113-.08c.611-.015 1.157 0 1.593 0l1.002.035c.117-.003.235.007.35.03a1.712 1.712 0 0 1-.35 0H36.76c-.436 0-.972 0-1.593.04-.62.041-1.322.041-2.099.121-.776.08-1.633.125-2.54.255-.906.13-1.877.271-2.894.436-2.2.41-4.375.948-6.512 1.613a58.131 58.131 0 0 0-6.261 2.489c-.927.451-1.813.867-2.615 1.313-.801.445-1.553.856-2.224 1.252-.67.395-1.262.786-1.788 1.117-.526.33-.967.631-1.322.881l-.832.571c-.093.062-.19.117-.29.166ZM41.79 150.037c0-.092.012-.182.035-.271l.15-.771c.066-.331.156-.736.276-1.202.12-.466.24-1.002.416-1.588a49.015 49.015 0 0 1 1.337-4.052 51.533 51.533 0 0 1 2.094-4.789 52.161 52.161 0 0 1 2.58-4.548 45.487 45.487 0 0 1 2.449-3.506c.36-.501.716-.907 1.002-1.283.285-.375.57-.686.8-.941l.502-.581c.125-.13.19-.196.2-.191a1.085 1.085 0 0 1-.16.226c-.125.165-.29.365-.501.611-.21.245-.476.586-.766.972-.29.385-.636.806-1.002 1.302a58.411 58.411 0 0 0-2.39 3.506 52.69 52.69 0 0 0-2.549 4.538c-.831 1.653-1.503 3.266-2.109 4.754-.606 1.487-1.037 2.86-1.382 4.007-.185.581-.32 1.112-.451 1.573-.13.461-.235.861-.316 1.192-.08.33-.145.556-.2.756.005.096 0 .191-.015.286ZM109.842 12.551a2.003 2.003 0 0 1-.196.3l-.616.847c-.265.361-.586.807-.937 1.338-.35.53-.776 1.122-1.197 1.803-.42.681-.871 1.418-1.372 2.234-.501.817-.967 1.698-1.478 2.625a68.96 68.96 0 0 0-2.92 6.246c-.917 2.239-1.663 4.478-2.269 6.512-.28 1.001-.566 2.003-.776 2.91-.21.906-.411 1.773-.576 2.56-.166.786-.286 1.502-.401 2.123-.115.621-.2 1.172-.26 1.618-.06.446-.12.761-.16 1.002-.013.119-.038.237-.076.35a1.957 1.957 0 0 1 0-.36c.03-.26.065-.601.115-1.002.05-.4.11-1.002.22-1.623s.196-1.352.361-2.139c.165-.786.32-1.658.546-2.574.226-.917.501-1.899.757-2.926a70.387 70.387 0 0 1 2.254-6.546c.916-2.28 1.953-4.383 2.955-6.256a49.73 49.73 0 0 1 1.502-2.625c.501-.807.962-1.553 1.403-2.224.441-.671.867-1.262 1.232-1.783.366-.521.696-.967 1.002-1.318.306-.35.476-.61.641-.816.07-.102.152-.195.246-.276ZM154.937 64.59a1.444 1.444 0 0 1-.301.054l-.866.116-.627.075c-.23.035-.475.09-.736.135-.531.11-1.137.195-1.788.386l-1.002.265c-.36.095-.721.23-1.097.35-.766.231-1.548.572-2.374.907a28.96 28.96 0 0 0-9.462 6.647c-.596.666-1.182 1.287-1.653 1.929-.24.315-.501.606-.706.906l-.621.882c-.401.546-.686 1.092-.967 1.548-.135.235-.27.445-.381.65l-.28.562-.401.776a1.246 1.246 0 0 1-.16.266c.028-.099.065-.194.11-.286.095-.21.21-.5.361-.801l.26-.576c.105-.206.236-.421.366-.662.285-.543.598-1.07.937-1.582l.591-.892c.205-.31.455-.606.696-.927.471-.65 1.052-1.282 1.648-1.958a28.157 28.157 0 0 1 9.542-6.702c.836-.33 1.628-.666 2.399-.892.386-.115.751-.25 1.112-.34l1.037-.25c.596-.148 1.2-.263 1.808-.346.266-.045.501-.09.746-.115l.632-.056.871-.065c.101-.016.204-.017.306-.005ZM191.768 94.397l-.131-.04-.375-.125-1.438-.5-1.037-.381c-.38-.13-.801-.256-1.252-.401-.896-.28-1.908-.636-3.06-.927l-1.794-.5c-.626-.171-1.287-.301-1.963-.462-1.352-.335-2.825-.58-4.363-.861a75.596 75.596 0 0 0-20.321-.621c-1.553.185-3.035.34-4.408.59-.686.121-1.352.211-2.004.341l-1.818.376c-1.167.22-2.199.501-3.115.742-.456.115-.882.215-1.268.32l-1.061.316-1.463.43-.386.106a.5.5 0 0 1-.135 0l.125-.05.376-.13 1.452-.502 1.057-.335c.386-.115.812-.226 1.268-.35.911-.236 1.943-.542 3.11-.777l1.823-.396c.632-.135 1.303-.23 2.004-.35 1.377-.266 2.86-.426 4.418-.622a73.678 73.678 0 0 1 20.386.626c1.543.29 3.006.541 4.368.887.681.165 1.342.3 1.969.5l1.793.502c1.152.305 2.159.676 3.055.966.451.15.867.286 1.247.426l1.032.401 1.423.561.365.155c.081.06.126.08.121.085Z" fill="#EBEBEB"/><path d="M113.914 12.296V26.58c-3.241 3.181-14.952 14.992-14.952 14.992h14.952v11.245a7.257 7.257 0 0 0 7.188 7.253l82.888.782a7.247 7.247 0 0 0 7.318-7.253V12.296a7.25 7.25 0 0 0-7.253-7.253h-82.888a7.257 7.257 0 0 0-6.701 4.477 7.262 7.262 0 0 0-.552 2.776Z" fill="#FAFAFA"/><path d="M113.914 12.296s0-.275.03-.811c.088-.795.304-1.57.641-2.295a7.258 7.258 0 0 1 .922-1.502 7.766 7.766 0 0 1 1.563-1.443 7.331 7.331 0 0 1 2.254-1.027 10.169 10.169 0 0 1 2.805-.25l33.68-.05H204c.295 0 .596 0 .891.05a7.39 7.39 0 0 1 6.111 4.799c.215.578.358 1.18.426 1.793.04.62.04 1.227.035 1.838V53.7a7.677 7.677 0 0 1-.3 2.003 7.375 7.375 0 0 1-2.184 3.432 6.856 6.856 0 0 1-1.713 1.147 7.33 7.33 0 0 1-1.974.63c-.648.096-1.304.13-1.958.1h-1.929l-3.847-.04-7.613-.07-14.902-.145-28.255-.275-25.696-.255a7.403 7.403 0 0 1-5.38-2.415 7.513 7.513 0 0 1-1.933-5.364V41.593l.12.12H98.702l.175-.175 14.977-14.971v.05c0-4.639.025-8.21.03-10.624V12.33v3.662c0 2.414 0 5.985.035 10.624L98.992 41.643l-.075-.175h15.122v10.975a7.251 7.251 0 0 0 1.874 5.184 7.126 7.126 0 0 0 5.184 2.319l25.696.23 28.25.256 14.907.14 7.613.07 3.842.035h1.934a9.605 9.605 0 0 0 1.903-.1 7.12 7.12 0 0 0 5.605-4.974 7.193 7.193 0 0 0 .29-1.933V13.373c0-.611 0-1.217-.04-1.803a7.497 7.497 0 0 0-.4-1.723 7.101 7.101 0 0 0-5.009-4.453c-1.117-.296-2.289-.18-3.451-.206h-46.448l-33.66-.075a9.934 9.934 0 0 0-2.78.236 7.223 7.223 0 0 0-2.224 1.001 7.635 7.635 0 0 0-1.553 1.413c-.369.45-.68.945-.927 1.473-.451.959-.7 2-.731 3.06Z" fill="#263238"/><path d="M140.241 45.02h-1.658v2.208h-.866V45.02h-4.739v-.626l4.453-5.565h.962l-4.318 5.425h3.647V42.31h.861v1.943h1.678l-.02.766ZM141.032 43.026c0-2.675 1.403-4.268 3.346-4.268 1.944 0 3.361 1.593 3.361 4.268 0 2.674-1.417 4.272-3.361 4.272-1.943 0-3.346-1.613-3.346-4.272Zm5.821 0c0-2.244-1.002-3.477-2.475-3.477-1.472 0-2.469 1.233-2.469 3.477 0 2.244 1.002 3.506 2.469 3.506 1.468 0 2.475-1.262 2.475-3.506ZM156.115 45.02h-1.678v2.208h-.862V45.02h-4.743v-.626l4.452-5.565h.962l-4.297 5.425h3.661V42.31h.842v1.943h1.663v.766ZM166.793 46.457v.771h-5.94v-8.4h5.78v.767h-4.874V42.6h4.343v.756h-4.343v3.116l5.034-.015ZM171.878 40.867v.811h-.206c-1.317 0-2.123.842-2.123 2.33v3.215h-.852v-6.311h.816v1.232c.396-.831 1.198-1.277 2.365-1.277ZM176.591 40.867v.811h-.205c-1.318 0-2.124.842-2.124 2.33v3.215h-.852v-6.311h.817v1.232c.421-.831 1.202-1.277 2.364-1.277ZM177.428 44.073a3.207 3.207 0 0 1 1.981-2.961 3.208 3.208 0 0 1 4.376 2.329 3.209 3.209 0 0 1-3.127 3.847 3.105 3.105 0 0 1-3.23-3.215Zm5.555 0a2.349 2.349 0 1 0-2.34 2.459 2.296 2.296 0 0 0 2.21-1.52c.108-.301.152-.62.13-.94ZM188.768 40.867v.811h-.206c-1.322 0-2.123.842-2.123 2.33v3.215h-.852v-6.311h.817v1.232c.395-.831 1.197-1.277 2.364-1.277ZM133.529 24.898c0-3.942 3.071-6.862 7.258-6.862 4.188 0 7.263 2.9 7.263 6.862s-3.09 6.863-7.263 6.863c-4.172 0-7.258-2.92-7.258-6.863Zm11.411 0a4.153 4.153 0 1 0-4.153 4.258 4.053 4.053 0 0 0 4.153-4.258ZM149.393 26.431c0-3.07 2.369-5.25 5.61-5.25 3.24 0 5.59 2.18 5.59 5.25s-2.35 5.23-5.59 5.23c-3.241 0-5.61-2.16-5.61-5.23Zm8.204 0c0-1.758-1.117-2.82-2.594-2.82-1.478 0-2.62 1.062-2.62 2.82 0 1.758 1.137 2.825 2.62 2.825 1.482 0 2.614-1.062 2.614-2.825h-.02ZM173.646 26.431c0 3.226-2.199 5.23-5.059 5.23a3.964 3.964 0 0 1-3.071-1.228v4.754h-2.955v-13.85h2.825v1.172a3.96 3.96 0 0 1 3.201-1.327c2.86 0 5.059 2.049 5.059 5.25Zm-3.006 0c0-1.758-1.117-2.82-2.594-2.82-1.478 0-2.595 1.062-2.595 2.82 0 1.758 1.117 2.825 2.595 2.825 1.477 0 2.625-1.062 2.625-2.825h-.031ZM174.647 30.584l1.002-2.124a6.954 6.954 0 0 0 3.547 1.002c1.362 0 1.873-.361 1.873-.927 0-1.668-6.156.035-6.156-4.037 0-1.934 1.743-3.301 4.718-3.301a8.407 8.407 0 0 1 3.922.891l-1.001 2.104a5.874 5.874 0 0 0-2.936-.756c-1.327 0-1.898.416-1.898.947 0 1.743 6.161.055 6.161 4.072 0 1.898-1.763 3.24-4.814 3.24a8.77 8.77 0 0 1-4.418-1.111ZM185.262 29.957a1.823 1.823 0 0 1 3.636 0 1.823 1.823 0 0 1-3.636 0Zm.055-11.69h3.506l-.586 8.66h-2.349l-.571-8.66Z" fill="#000"/><path d="m64.907 10.177.47-.466a6.988 6.988 0 0 1 9.88.037l1.331 1.34a6.988 6.988 0 0 1-.036 9.882l-.47.465-11.175-11.258Z" fill="#455A64"/><path d="m76.082 21.442-11.185-11.27.466-.466a6.963 6.963 0 0 1 4.934-2.033h.025a6.967 6.967 0 0 1 4.944 2.063l1.332 1.343a7.012 7.012 0 0 1-.035 9.902l-.481.461Zm-11.16-11.275 11.16 11.24.46-.456a6.977 6.977 0 0 0 .036-9.862l-1.333-1.343a6.918 6.918 0 0 0-4.923-2.058h-.025a6.927 6.927 0 0 0-4.914 2.003l-.461.476Z" fill="#263238"/><path d="m42.333 54.511-.486.449a6.987 6.987 0 0 1-9.873-.397l-1.281-1.388a7.013 7.013 0 0 1 .398-9.909l.467-.431L42.333 54.51Z" fill="#455A64"/><path d="M37.117 56.83h-.29a6.968 6.968 0 0 1-4.864-2.244L30.686 53.2a7.013 7.013 0 0 1 .395-9.893l.501-.456 10.764 11.666-.5.451a6.942 6.942 0 0 1-4.729 1.863Zm-6.01-13.524A6.978 6.978 0 0 0 30.7 53.2l1.282 1.387a6.938 6.938 0 0 0 4.849 2.24h.285a6.927 6.927 0 0 0 4.724-1.849l.5-.44-10.739-11.642-.495.411Z" fill="#263238"/><path d="m24.967 28.86-.786.974 8.066 6.507.786-.975-8.066-6.506Z" fill="#455A64"/><path d="M25.492 26.802a2.555 2.555 0 1 1-3.592.386 2.565 2.565 0 0 1 3.592-.386Z" fill="#263238"/><path d="M56.028 11.865 32.506 35.223a8.265 8.265 0 0 0-.04 11.688l14.767 14.87a8.265 8.265 0 0 0 11.688.042l23.521-23.358a8.265 8.265 0 0 0 .041-11.689l-14.767-14.87a8.265 8.265 0 0 0-11.688-.041Z" fill="#FF725E"/><path d="M56.687 11.214 55.58 6.992l-2.88.475-.831-3.05.941-.215.657 2.218 2.875-.39 1.202 4.333-.857.851Z" fill="#455A64"/><path d="M58.378 17.418 38.044 37.61a6.993 6.993 0 0 0-.034 9.889l.935.942a6.992 6.992 0 0 0 9.889.034l20.334-20.192a6.993 6.993 0 0 0 .034-9.889l-.935-.942a6.993 6.993 0 0 0-9.889-.034Z" fill="#263238"/><path d="M70.291 30.158s.06-.08.186-.226c.196-.21.38-.433.55-.666a8.435 8.435 0 0 0 1.468-2.94c.21-.768.323-1.559.336-2.354a9.302 9.302 0 0 0-.451-2.785 8.624 8.624 0 0 0-1.563-2.83l-.59-.651-.642-.642c-.43-.452-.893-.874-1.382-1.262a8.852 8.852 0 0 0-3.617-1.673 8.956 8.956 0 0 0-4.288.25c-.726.23-1.42.553-2.063.962-.658.433-1.266.937-1.814 1.503l-3.53 3.506-15.744 15.643a8.72 8.72 0 0 0-2.504 5.064 9.049 9.049 0 0 0 .09 2.8 8.957 8.957 0 0 0 1.723 3.712c.295.345.586.681.916 1.002a15.166 15.166 0 0 0 1.974 1.813 8.69 8.69 0 0 0 9.517.436c.348-.2.682-.423 1.002-.666.3-.256.596-.501.871-.787l1.648-1.628 6.011-5.935 8.7-8.58 2.365-2.29.62-.6c.141-.131.221-.196.221-.196s-.065.075-.2.215l-.606.621-2.34 2.354-8.645 8.64-5.975 5.961-1.638 1.633c-.28.276-.587.541-.887.802a8.936 8.936 0 0 1-10.78.26 16.218 16.218 0 0 1-2.003-1.838c-.325-.316-.63-.671-.936-1.002-.287-.37-.548-.76-.782-1.167a8.843 8.843 0 0 1-1.002-2.654 9.277 9.277 0 0 1-.095-2.886 8.941 8.941 0 0 1 2.56-5.209L52.73 20.235l3.541-3.506a11.019 11.019 0 0 1 1.853-1.538 8.876 8.876 0 0 1 10.199.466 13.3 13.3 0 0 1 1.397 1.287l.636.646.606.637a8.817 8.817 0 0 1 1.558 2.915 9.09 9.09 0 0 1 .43 2.83 9.66 9.66 0 0 1-.355 2.384 8.435 8.435 0 0 1-1.502 2.945 6.26 6.26 0 0 1-.576.647l-.226.21Z" fill="#263238"/><path d="M44.295 45.9a39.204 39.204 0 0 1-.195-4.507 37.903 37.903 0 0 1 .07-4.508 40.22 40.22 0 0 1 .19 4.508 39.815 39.815 0 0 1-.065 4.508Z" fill="#fff"/><path d="M48.658 41.037c-1.495.203-3 .315-4.508.336-1.5.108-3.005.133-4.508.075 1.494-.202 3-.314 4.508-.336 1.5-.108 3.005-.133 4.508-.075ZM62.147 27.708a39.43 39.43 0 0 1-.195-4.508 37.735 37.735 0 0 1 .07-4.508 40.22 40.22 0 0 1 .19 4.508 39.813 39.813 0 0 1-.065 4.508Z" fill="#fff"/><path d="M66.51 22.845c-1.496.196-3 .308-4.509.335-1.5.112-3.005.135-4.508.07 1.496-.195 3-.306 4.508-.33 1.5-.112 3.006-.137 4.509-.075Z" fill="#fff"/><path d="M51.79 5.148A2.555 2.555 0 1 0 51.71.04a2.555 2.555 0 0 0 .08 5.108ZM59.697 61.053a2.552 2.552 0 0 1-.44-.366c-.276-.245-.661-.61-1.137-1.062a259.083 259.083 0 0 1-3.667-3.576 245.83 245.83 0 0 1-3.606-3.642 11.155 11.155 0 0 1-1.408-1.592c.147.12.287.25.421.385l1.117 1.077c1.002.957 2.254 2.21 3.657 3.587a260.31 260.31 0 0 1 3.616 3.631l1.077 1.122c.14.13.265.276.37.436ZM81.391 39.199a2.403 2.403 0 0 1-.44-.366c-.271-.245-.657-.606-1.133-1.057a286.123 286.123 0 0 1-3.671-3.576 200.398 200.398 0 0 1-3.602-3.647 11.324 11.324 0 0 1-1.407-1.587c.15.116.29.243.42.38l1.118 1.077 3.656 3.592c1.423 1.407 2.7 2.69 3.617 3.626l1.077 1.122c.14.128.263.275.365.436ZM71.025 32.088 52.703 50.706l2.042 2.01 18.322-18.618-2.042-2.01ZM50.226 54.11a.551.551 0 1 1-1.102-.034.551.551 0 0 1 1.102.035ZM54.403 58.523a.55.55 0 0 1-1.097-.045.551.551 0 0 1 1.097.045ZM74.78 29.11a.551.551 0 0 1-.572.502.551.551 0 1 1 .045-1.097.54.54 0 0 1 .526.596ZM78.977 33.524a.545.545 0 0 1-.776.473.545.545 0 0 1 .042-1.009.546.546 0 0 1 .734.536Z" fill="#263238"/><path d="M34.122 54.702a13.596 13.596 0 0 0-1.157-1.027c-.376-.296-.852-.616-1.338-1.047a5.192 5.192 0 0 1-1.272-1.673 5.66 5.66 0 0 1-.396-3.747c.09-.375.228-.737.411-1.077.14-.235.22-.36.235-.35-.188.478-.343.968-.465 1.467a5.78 5.78 0 0 0 .45 3.592c.602 1.332 1.769 2.063 2.505 2.69.426.308.777.709 1.027 1.172ZM55.896 14.395c.05.05-5.215 5.249-11.756 11.605-6.542 6.357-11.896 11.476-11.947 11.426-.05-.05 5.21-5.265 11.762-11.611 6.551-6.346 11.89-11.47 11.94-11.42ZM23.338 30.594c0 .03-.26 0-.596-.226a2.054 2.054 0 0 1-.601-2.805c.22-.345.44-.476.46-.45.02.024-.14.205-.295.535-.206.43-.27.915-.18 1.383.113.469.377.888.751 1.192.256.24.5.33.46.37ZM51.157 4.457c0 .03-.285 0-.641-.256a2.084 2.084 0 0 1-.39-3.005c.28-.335.54-.44.555-.416.015.025-.185.19-.405.501a2.094 2.094 0 0 0 .355 2.78c.296.26.541.356.526.396ZM70.12 8.474c-.699.092-1.388.25-2.058.47-.637.3-1.246.658-1.818 1.068a3.296 3.296 0 0 1 1.713-1.313 3.35 3.35 0 0 1 2.164-.225ZM49.33 61.944a51.72 51.72 0 0 1-3.742-3.681c-2.004-2.084-3.602-3.812-3.547-3.862.055-.05 1.723 1.598 3.737 3.682 2.013 2.083 3.601 3.811 3.551 3.861Z" fill="#fff"/><path d="M107.142 182.239H85.709v30.379h21.433v-30.379Z" fill="#FF725E"/><path d="M85.874 212.097h21.108a2.855 2.855 0 0 1 2.855 2.855v.271H83.014v-.271a2.85 2.85 0 0 1 .838-2.02 2.856 2.856 0 0 1 2.022-.835Z" fill="#263238"/><path d="M113.123 215.223H80.57v4.949h32.553v-4.949Z" fill="#FF725E"/><path d="M107.027 209.282c0 .07-4.749.131-10.61.131-5.86 0-10.613-.061-10.613-.131s4.748-.13 10.614-.13c5.865 0 10.609.055 10.609.13ZM107.027 205.666c0 .075-4.749.13-10.61.13-5.86 0-10.613-.055-10.613-.13 0-.075 4.748-.13 10.614-.13 5.865 0 10.609.06 10.609.13ZM107.027 202.119c0 .071-4.749.131-10.61.131-5.86 0-10.613-.06-10.613-.131 0-.07 4.748-.13 10.614-.13 5.865 0 10.609.06 10.609.13ZM107.027 198.508c0 .07-4.749.13-10.61.13-5.86 0-10.613-.06-10.613-.13s4.748-.13 10.614-.13c5.865 0 10.609.08 10.609.13ZM107.027 194.952c0 .075-4.749.13-10.61.13-5.86 0-10.613-.055-10.613-.13 0-.075 4.748-.13 10.614-.13 5.865 0 10.609.065 10.609.13ZM107.027 191.345c0 .075-4.749.131-10.61.131-5.86 0-10.613-.056-10.613-.131 0-.075 4.748-.13 10.614-.13 5.865 0 10.609.06 10.609.13ZM107.027 187.799c0 .07-4.749.13-10.61.13-5.86 0-10.613-.06-10.613-.13s4.748-.13 10.614-.13c5.865 0 10.609.055 10.609.13ZM107.027 184.188c0 .07-4.749.13-10.61.13-5.86 0-10.613-.06-10.613-.13 0-.071 4.748-.131 10.614-.131 5.865 0 10.609.055 10.609.131Z" fill="#263238"/><path d="m85.709 186.472 21.328-.591v-3.096H85.519l.19 3.687Z" fill="#000" opacity=".3"/><path d="M140.712 182.239h-21.433v30.379h21.433v-30.379Z" fill="#FF725E"/><path d="M119.444 212.097h21.108a2.855 2.855 0 0 1 2.855 2.855v.271h-26.823v-.271a2.846 2.846 0 0 1 .838-2.02 2.86 2.86 0 0 1 2.022-.835Z" fill="#263238"/><path d="M146.693 215.223H114.14v4.949h32.553v-4.949Z" fill="#FF725E"/><path d="M140.587 209.282c0 .07-4.749.131-10.609.131-5.861 0-10.614-.061-10.614-.131s4.748-.13 10.614-.13c5.865 0 10.609.055 10.609.13ZM140.587 205.666c0 .075-4.749.13-10.609.13-5.861 0-10.614-.055-10.614-.13 0-.075 4.748-.13 10.614-.13 5.865 0 10.609.06 10.609.13ZM140.587 202.119c0 .071-4.749.131-10.609.131-5.861 0-10.614-.06-10.614-.131 0-.07 4.748-.13 10.614-.13 5.865 0 10.609.06 10.609.13ZM140.587 198.508c0 .07-4.749.13-10.609.13-5.861 0-10.614-.06-10.614-.13s4.748-.13 10.614-.13c5.865 0 10.609.08 10.609.13ZM140.587 194.952c0 .075-4.749.13-10.609.13-5.861 0-10.614-.055-10.614-.13 0-.075 4.748-.13 10.614-.13 5.865 0 10.609.065 10.609.13ZM140.587 191.345c0 .075-4.749.131-10.609.131-5.861 0-10.614-.056-10.614-.131 0-.075 4.748-.13 10.614-.13 5.865 0 10.609.06 10.609.13ZM140.587 187.799c0 .07-4.749.13-10.609.13-5.861 0-10.614-.06-10.614-.13s4.748-.13 10.614-.13c5.865 0 10.609.055 10.609.13ZM140.587 184.188c0 .07-4.749.13-10.609.13-5.861 0-10.614-.06-10.614-.13 0-.071 4.748-.131 10.614-.131 5.865 0 10.609.055 10.609.131Z" fill="#263238"/><path d="m119.279 186.472 21.328-.591v-3.096h-21.518l.19 3.687Z" fill="#000" opacity=".3"/><path d="m141.76 99.338.529-2.098a.918.918 0 0 1 1.113-.664l8.587 2.168-.981 3.885-8.582-2.167a.915.915 0 0 1-.664-1.113l-.002-.01Z" fill="#FF725E"/><path d="m141.76 99.338.529-2.098a.918.918 0 0 1 1.113-.664l8.587 2.168-.981 3.885-8.582-2.167a.915.915 0 0 1-.664-1.113l-.002-.01Z" fill="#000" opacity=".3"/><path d="m139.89 106.765.728-2.885a1.505 1.505 0 0 1 1.825-1.089l7.999 2.02-1.472 5.828-7.979-2.015a1.498 1.498 0 0 1-1.141-1.261c-.027-.2-.013-.403.04-.598Z" fill="#FF725E"/><path d="m148.255 97.8-2.501 9.902 3.74.944 2.5-9.903-3.739-.944ZM154.452 138.06s16.003-.651 14.681-15.988c-1.002-11.746-18.488-11.851-18.488-11.851l4.468-9.763s20.416 1.778 24.448 16.645c4.553 16.8-5.975 30.499-25.109 30.179v-9.222Z" fill="#FF725E"/><path d="m156.423 99.08-6.084-1.345-2.992 13.538 6.085 1.344 2.991-13.538Z" fill="#263238"/><path d="M153.69 111.192c0 .116-1.382-.12-3.03-.501a17.838 17.838 0 0 1-2.96-.821c1.015.107 2.02.297 3.005.566.827.19 1.573.371 2.109.501l.636.17c.083.019.164.047.24.085ZM154.226 108.753c0 .115-1.377-.12-3.03-.501a17.207 17.207 0 0 1-2.956-.821c1.016.108 2.021.297 3.006.566.826.19 1.568.37 2.109.501l.631.17a.848.848 0 0 1 .24.085ZM154.872 106.294c0 .12-1.382-.116-3.005-.501a17.783 17.783 0 0 1-2.961-.822c1.016.108 2.021.297 3.006.566.821.186 1.568.366 2.104.501l.636.165.22.091ZM155.303 103.879c0 .116-1.377-.12-3.005-.501-1.01-.185-2-.46-2.961-.821 1.016.108 2.021.297 3.006.566.826.19 1.568.371 2.109.501l.631.17a.865.865 0 0 1 .22.085ZM155.929 101.595c0 .12-1.377-.115-3.005-.501a17.877 17.877 0 0 1-2.961-.821c1.016.108 2.021.297 3.006.566.826.185 1.573.366 2.108.501l.637.165c.073.026.145.056.215.09Z" fill="#455A64"/><path d="M157.948 147.181a7.068 7.068 0 0 1-.326-1.352c-.16-.841-.35-2.003-.501-3.311a44.12 44.12 0 0 1-.255-3.341 6.889 6.889 0 0 1 0-1.392c.1.452.157.914.17 1.377.075.852.18 2.029.331 3.326.15 1.297.305 2.465.42 3.311.095.455.148.918.161 1.382ZM162.922 146.405a46.65 46.65 0 0 1-1.458-4.778 47.656 47.656 0 0 1-1.207-4.854 48.1 48.1 0 0 1 1.457 4.783 48.992 48.992 0 0 1 1.208 4.849ZM169.608 144.011a9.499 9.499 0 0 1-.856-1.327c-.541-.902-1.207-2.004-1.949-3.266l-1.963-3.256c-.292-.439-.55-.899-.771-1.378.346.397.656.825.926 1.278a60.875 60.875 0 0 1 2.004 3.22c.736 1.273 1.427 2.45 1.888 3.311.28.452.521.926.721 1.418ZM175.234 139.503c-.05.055-2.039-1.503-4.448-3.506-2.409-2.004-4.328-3.667-4.283-3.722.045-.055 2.039 1.503 4.448 3.506 2.409 2.004 4.328 3.662 4.283 3.722ZM178.855 133.342c-.03.07-2.384-.852-5.264-2.049-2.88-1.197-5.19-2.224-5.16-2.289.03-.065 2.385.852 5.26 2.049s5.189 2.199 5.164 2.289ZM180.628 126.645a12.237 12.237 0 0 1-1.688-.16l-4.047-.501-4.052-.501a10.388 10.388 0 0 1-1.673-.256c.565-.022 1.131.001 1.693.07 1.042.081 2.479.221 4.062.416 1.583.196 3.005.401 4.047.576.562.072 1.117.191 1.658.356ZM179.802 119.723a8.834 8.834 0 0 1-1.503.5c-.947.276-2.269.617-3.742.927-1.472.311-2.82.531-3.796.661a8.718 8.718 0 0 1-1.588.136 11.254 11.254 0 0 1 1.563-.321c.966-.175 2.299-.421 3.766-.731 1.468-.311 2.79-.621 3.747-.852a10.943 10.943 0 0 1 1.553-.32ZM177.788 113.081c.03.065-2.113 1.212-4.793 2.564-2.68 1.353-4.879 2.395-4.914 2.329-.035-.065 2.114-1.212 4.794-2.564 2.679-1.353 4.878-2.389 4.913-2.329ZM173.646 107.696c.045.055-1.738 1.668-4.007 3.607-2.269 1.938-4.108 3.461-4.153 3.406-.045-.055 1.733-1.668 4.007-3.607 2.274-1.938 4.123-3.461 4.153-3.406ZM166.698 103.699c.061.035-1.066 2.004-2.504 4.423a48.632 48.632 0 0 1-2.745 4.293c-.06-.036 1.067-2.004 2.505-4.428a49.938 49.938 0 0 1 2.744-4.288ZM160.462 101.194a51.187 51.187 0 0 1-1.502 4.939c-.892 2.705-1.673 4.879-1.739 4.859a49.568 49.568 0 0 1 1.503-4.944 50.232 50.232 0 0 1 1.738-4.854Z" fill="#263238"/><path d="M167.975 129.926a12.338 12.338 0 0 1-5.8 5.95 18.258 18.258 0 0 1-3.927 1.533c3.061 1.633 7.058.656 9.732-1.553 2.675-2.209 4.088-5.715 4.183-9.186a10.885 10.885 0 0 0-.867-4.809c-.681-1.502-1.808-3.065-3.296-3.756.442.824.756 1.711.932 2.629.632 3.09.298 6.299-.957 9.192Z" fill="#000" opacity=".3"/><path d="M50.34 156.944c.184.17.351.356.502.556.31.366.731.912 1.232 1.608a35.284 35.284 0 0 1 3.31 5.79 34.434 34.434 0 0 1 2.15 6.326c.195.832.325 1.503.395 2.004.049.244.077.492.085.741a3.739 3.739 0 0 1-.185-.721 54.95 54.95 0 0 0-.47-1.958 41.098 41.098 0 0 0-2.21-6.267 40.692 40.692 0 0 0-3.22-5.81 48.368 48.368 0 0 0-1.157-1.653 3.81 3.81 0 0 1-.431-.616ZM48.212 155.171c.05-.055.286.075.531.295.245.221.4.436.356.501-.045.065-.286-.075-.531-.295-.246-.221-.401-.451-.356-.501ZM48.703 153.698c.06-.035.306.261.551.671.245.411.39.767.33.802-.06.035-.31-.261-.555-.671-.246-.411-.391-.767-.326-.802Z" fill="#263238"/><path d="M57.97 174.275c.014-.135.04-.269.075-.401.07-.284.16-.664.27-1.142.236-1.002.571-2.424.957-4.202a162.015 162.015 0 0 0 2.394-14.025c.37-2.745.501-5.41 1.142-7.759a11.86 11.86 0 0 1 1.342-3.161 9.449 9.449 0 0 1 5.871-4.122c.382-.089.77-.148 1.162-.176.137-.012.274-.012.41 0-.133.03-.269.05-.405.061-.386.052-.769.126-1.147.22a9.756 9.756 0 0 0-3.777 1.933 9.31 9.31 0 0 0-1.928 2.204 11.65 11.65 0 0 0-1.297 3.116c-.622 2.314-.747 4.974-1.113 7.729a145.013 145.013 0 0 1-2.474 14.025c-.41 1.778-.776 3.205-1.037 4.187-.133.471-.239.847-.315 1.127a2.461 2.461 0 0 1-.13.386Z" fill="#455A64"/><path d="M58.565 134.554a8.006 8.006 0 0 0 1.278 1.863 8.418 8.418 0 0 0 4.813 2.345 18.22 18.22 0 0 0 5.47-.231l1.648-.29c.2-.046.405-.073.611-.081-.19.084-.388.144-.591.181-.386.095-.942.23-1.638.37a16.49 16.49 0 0 1-5.51.306 8.258 8.258 0 0 1-4.913-2.474 5.407 5.407 0 0 1-.942-1.408 2.01 2.01 0 0 1-.226-.581ZM56.662 132.971c.05-.05.29.105.531.351.24.245.4.501.35.531-.05.03-.29-.105-.53-.346-.24-.24-.4-.486-.35-.536ZM57.228 132.1c.065-.04.29.215.5.566.211.35.346.671.281.706-.065.035-.285-.215-.5-.566-.216-.351-.341-.671-.281-.706ZM58.796 131.984c.075 0 .085.306.03.662-.055.355-.16.626-.23.616-.07-.01-.086-.306-.03-.662.054-.355.16-.626.23-.616Z" fill="#263238"/><path d="M63.514 151.544c.013.298 0 .596-.04.892a66.07 66.07 0 0 1-.25 2.419 95.531 95.531 0 0 1-1.277 7.919 99.206 99.206 0 0 1-1.924 7.794 60.719 60.719 0 0 1-.721 2.319 6.324 6.324 0 0 1-.31.837c.05-.293.12-.583.21-.867.165-.591.38-1.382.641-2.339.53-2.003 1.222-4.728 1.848-7.794.626-3.065 1.067-5.86 1.353-7.889.135-1.002.245-1.798.325-2.409.03-.297.08-.591.145-.882ZM72.395 139.949c0 .05-.716.055-1.823.345a9.046 9.046 0 0 0-6.281 5.801c-.381 1.076-.441 1.798-.501 1.788a1.397 1.397 0 0 1 0-.501c.055-.456.153-.905.29-1.343a8.702 8.702 0 0 1 6.412-5.92 7.723 7.723 0 0 1 1.362-.185c.18-.024.363-.019.541.015Z" fill="#455A64"/><path d="M60.344 174.17a2.65 2.65 0 0 1 0-.376c0-.245.06-.611.125-1.077a10.02 10.02 0 0 1 1.187-3.792c.42-.736 1.002-1.457 1.473-2.309.237-.436.406-.905.5-1.392.087-.524.1-1.056.04-1.583-.08-1.087-.395-2.259-.15-3.506a4.27 4.27 0 0 1 .802-1.698c.365-.501.791-1.002 1.127-1.503a3.187 3.187 0 0 0 .56-1.708 7.42 7.42 0 0 0-.24-1.788 10.582 10.582 0 0 1-.29-3.507 9.97 9.97 0 0 1 5.28-7.959 8.903 8.903 0 0 1 1.001-.441c.117-.049.237-.087.36-.115a1.876 1.876 0 0 1-.34.16c-.225.106-.556.256-.962.501a10.258 10.258 0 0 0-2.98 2.545 9.871 9.871 0 0 0-2.109 5.344 10.448 10.448 0 0 0 .3 3.417c.16.603.243 1.224.251 1.848-.02.66-.231 1.3-.606 1.843-.35.556-.776 1.027-1.132 1.528a3.917 3.917 0 0 0-.761 1.598c-.236 1.157.06 2.314.14 3.426a6.011 6.011 0 0 1-.055 1.648 5.12 5.12 0 0 1-.556 1.452c-.501.872-1.082 1.583-1.503 2.299a10.413 10.413 0 0 0-1.242 3.717c-.075.441-.13.797-.175 1.062a1.879 1.879 0 0 1-.045.366Z" fill="#455A64"/><path d="M72.966 145.138c-.416.004-.83.063-1.232.175a4.896 4.896 0 0 0-2.59 2.069c-.8 1.197-1.157 2.915-1.347 4.808a60.614 60.614 0 0 1-.897 6.196 100.498 100.498 0 0 1-3.005 10.93c-.45 1.377-.826 2.504-1.097 3.251-.125.36-.23.651-.31.876-.03.106-.074.207-.13.301.02-.113.05-.223.09-.331.065-.23.155-.526.265-.891l1.002-3.276c.846-2.77 2.003-6.602 2.905-10.93.44-2.158.731-4.237.932-6.146.2-1.908.586-3.656 1.437-4.878a4.88 4.88 0 0 1 2.715-2.064 3.12 3.12 0 0 1 .932-.115c.11-.001.221.008.33.025Z" fill="#E0E0E0"/><path d="M54.578 172.376h9.702s-5.885 46.729-38.373 46.584l.416-9.112s22.1-1.372 28.255-37.472ZM12.893 210.13l.038-2.154a.916.916 0 0 1 .933-.9l8.829.155-.07 4.007-8.83-.156a.909.909 0 0 1-.842-.594.916.916 0 0 1-.058-.358Z" fill="#FF725E"/><path d="m12.893 210.13.038-2.154a.916.916 0 0 1 .933-.9l8.83.155-.071 4.007-8.83-.156a.902.902 0 0 1-.65-.287.91.91 0 0 1-.25-.665Z" fill="#000" opacity=".3"/><path d="m12.865 218.328.06-2.975a1.503 1.503 0 0 1 1.533-1.472l8.25.165-.12 6.01-8.22-.164a1.51 1.51 0 0 1-1.085-.462 1.506 1.506 0 0 1-.418-1.102Z" fill="#FF725E"/><path d="m18.862 207.153-.18 10.212 3.857.068.18-10.212-3.857-.068Z" fill="#FF725E"/><path d="m27.108 206.536-6.231.076.17 13.864 6.23-.076-.17-13.864Z" fill="#263238"/><path d="M27.204 218.945c0 .115-1.372.2-3.06.21a17.222 17.222 0 0 1-3.07-.13 19.385 19.385 0 0 1 3.065-.136h2.825c.082.011.162.029.24.056ZM27.174 216.45c0 .115-1.372.195-3.06.206a17.507 17.507 0 0 1-3.07-.126 19.384 19.384 0 0 1 3.065-.135h2.825a.901.901 0 0 1 .24.055ZM27.245 213.931c0 .115-1.368.195-3.06.205-1.024.048-2.05.006-3.066-.125a19.265 19.265 0 0 1 3.065-.135H27.004a.948.948 0 0 1 .24.055ZM27.114 211.481c0 .115-1.372.201-3.065.211-1.024.048-2.05.004-3.066-.131a19.385 19.385 0 0 1 3.066-.135h2.825c.082.011.162.029.24.055ZM27.204 209.092c0 .115-1.372.2-3.06.21a18.006 18.006 0 0 1-3.07-.125 18.052 18.052 0 0 1 3.065-.135h2.825c.082.008.162.025.24.05Z" fill="#455A64"/><path d="M30.61 218.494s0 .08.03.25v.291l-.085-.281a41.675 41.675 0 0 1-.956-4.588 56.7 56.7 0 0 1-.446-3.461 7.341 7.341 0 0 1-.065-1.448c.12.469.203.946.25 1.428.125.881.3 2.099.501 3.441.346 2.174.701 4.007.777 4.608h-.08c.044-.17.06-.24.074-.24ZM35.219 217.597a46.546 46.546 0 0 1-1.613-4.718 46.504 46.504 0 0 1-1.367-4.794 46.505 46.505 0 0 1 1.612 4.719 46.486 46.486 0 0 1 1.368 4.793ZM40.663 215.298a49.446 49.446 0 0 1-2.394-4.538c-1.252-2.545-2.219-4.628-2.154-4.658a49.835 49.835 0 0 1 2.39 4.543c1.257 2.539 2.219 4.623 2.158 4.653ZM45.487 211.692a46.166 46.166 0 0 1-3.095-3.962 49.435 49.435 0 0 1-2.89-4.123 48.424 48.424 0 0 1 3.1 3.967c1.648 2.234 2.94 4.078 2.885 4.118ZM49.7 207.695a47.057 47.057 0 0 1-3.607-3.432 48.118 48.118 0 0 1-3.416-3.616 47.375 47.375 0 0 1 3.601 3.431 48.963 48.963 0 0 1 3.422 3.617ZM53.17 202.896a7.306 7.306 0 0 1-1.257-.671l-2.965-1.733-2.96-1.728a7.784 7.784 0 0 1-1.207-.767 7.6 7.6 0 0 1 1.292.606 94.38 94.38 0 0 1 3.005 1.663 58.432 58.432 0 0 1 2.926 1.803c.413.24.804.517 1.167.827ZM55.52 198.037a6.875 6.875 0 0 1-1.217-.546 161.4 161.4 0 0 0-2.89-1.382c-1.132-.526-2.174-.977-2.926-1.308a7.703 7.703 0 0 1-1.207-.571c.438.086.865.221 1.273.401.77.286 1.828.716 2.97 1.242a41.995 41.995 0 0 1 2.865 1.453c.4.198.78.437 1.132.711ZM58.325 193.339a6.94 6.94 0 0 1-1.388-.231 52.615 52.615 0 0 1-3.29-.841 47.728 47.728 0 0 1-3.231-1.057 7.029 7.029 0 0 1-1.298-.546 8.08 8.08 0 0 1 1.358.371l3.24 1.002c1.268.39 2.425.681 3.261.911.46.091.91.222 1.348.391ZM59.823 188.6a42.332 42.332 0 0 1-4.633-.46 42.486 42.486 0 0 1-4.599-.717c1.552.068 3.099.222 4.634.461 1.545.149 3.08.388 4.598.716ZM61.416 183.967c-.45.035-.901.021-1.348-.04-.831-.06-1.978-.16-3.24-.285-1.263-.126-2.41-.256-3.232-.366a6.914 6.914 0 0 1-1.332-.225 7.11 7.11 0 0 1 1.353.045c.831.06 1.973.16 3.235.285 1.263.125 2.405.256 3.231.361.45.034.896.11 1.333.225ZM62.643 179.479a46.097 46.097 0 0 1-4.829.281 43.3 43.3 0 0 1-4.834 0 46.095 46.095 0 0 1 4.83-.281 44.79 44.79 0 0 1 4.833 0ZM63.149 175.813a6.572 6.572 0 0 1-1.323.205 33.7 33.7 0 0 1-3.215.16c-1.258.005-2.4-.055-3.221-.13a6.417 6.417 0 0 1-1.323-.19c.444-.04.89-.04 1.333 0 .821.03 1.953.065 3.206.055a92.85 92.85 0 0 0 3.205-.085c.445-.045.892-.05 1.338-.015Z" fill="#263238"/><path d="M55 173.764a.36.36 0 0 1 0 .125v.371c0 .325 0 .806-.036 1.422a37.071 37.071 0 0 1-.616 5.205 39.233 39.233 0 0 1-2.179 7.458 38.79 38.79 0 0 1-11.02 15.317 39.453 39.453 0 0 1-6.39 4.423 36.57 36.57 0 0 1-4.744 2.229c-.571.231-1.032.371-1.338.501l-.35.115a.387.387 0 0 1-.126.03.353.353 0 0 1 .116-.055l.34-.14c.3-.125.757-.281 1.323-.501a41.22 41.22 0 0 0 4.688-2.294 40.023 40.023 0 0 0 19.535-27.048c.342-1.708.575-3.437.696-5.174.055-.612.055-1.092.08-1.418v-.371a.436.436 0 0 1 .02-.195Z" fill="#fff"/><path d="M99.975 119.317s-5.37-7.268-17.797-6.191c0 0 12.647-9.718 5.204-19.7 0 0 15.974 4.718 16.154-15.248 0 0 2.905 18.534 17.972 13.254 0 0 1.072 14.706 11.495 11.986-5.044 4.959-9.947 9.332-8.946 15.673" fill="#FF725E"/><path d="M99.975 119.317s-5.37-7.268-17.797-6.191c0 0 12.647-9.718 5.204-19.7 0 0 15.974 4.718 16.154-15.248 0 0 2.905 18.534 17.972 13.254 0 0 1.072 14.706 11.495 11.986-5.044 4.959-9.947 9.332-8.946 15.673" fill="#fff" opacity=".8"/><path d="M99.974 119.317s-.125-8.475-10.108-7.609c0 0 9.282-5.354 3.306-13.374 0 0 12.833 3.792 12.978-12.246 0 0 2.329 14.871 14.436 10.644 0 0-1.448 10.789 6.932 8.6-4.052 4.007-5.695 8.515-4.893 13.624" fill="#FF725E"/><path d="M99.974 119.317s-.125-8.475-10.108-7.609c0 0 9.282-5.354 3.306-13.374 0 0 12.833 3.792 12.978-12.246 0 0 2.329 14.871 14.436 10.644 0 0-1.448 10.789 6.932 8.6-4.052 4.007-5.695 8.515-4.893 13.624" fill="#fff" opacity=".6"/><path d="M116.369 63.097a2.545 2.545 0 0 1-.121.315l-.395.882c-.176.38-.386.846-.611 1.402-.226.556-.501 1.167-.757 1.874-.255.706-.566 1.467-.841 2.304-.276.836-.561 1.733-.852 2.68a64.294 64.294 0 0 0-1.477 6.27 62.314 62.314 0 0 0-.802 6.392c-.06 1.002-.125 1.928-.135 2.81-.01.882-.025 1.703 0 2.45.025.746.04 1.427.06 2.003.02.576.05 1.107.085 1.503.035.395.045.716.06.961.013.114.013.228 0 .341a2.923 2.923 0 0 1-.055-.336 38.896 38.896 0 0 0-.105-.961c-.05-.416-.1-.927-.13-1.503-.03-.576-.09-1.277-.095-2.004-.005-.726-.04-1.572 0-2.459s.06-1.828.11-2.82a56.716 56.716 0 0 1 2.289-12.718c.295-.946.571-1.853.877-2.68.305-.826.591-1.602.871-2.299.281-.696.561-1.322.802-1.868.24-.546.46-1.002.651-1.387l.435-.862c.035-.101.08-.199.136-.29ZM80.515 59.656a16.527 16.527 0 0 0-3.006-2.25 16.654 16.654 0 0 0-3.536-1.262c.376-.025.753.012 1.117.11a9.293 9.293 0 0 1 2.544.922c.798.43 1.53.97 2.174 1.608.284.248.523.543.707.872ZM84.362 81.46c.078.057.148.124.21.2l.556.596c.5.5 1.157 1.297 1.958 2.284a63.252 63.252 0 0 1 5.62 8.17 66.419 66.419 0 0 1 2.535 4.843 55.623 55.623 0 0 1 1.753 4.102c.45 1.187.796 2.159 1.002 2.835.093.314.174.575.24.782.034.09.056.184.065.28a1.127 1.127 0 0 1-.115-.265l-.29-.762a68.834 68.834 0 0 0-1.077-2.8 79.923 79.923 0 0 0-1.798-4.067 68.52 68.52 0 0 0-2.545-4.819 72.113 72.113 0 0 0-2.905-4.598 61.948 61.948 0 0 0-2.635-3.586 96.904 96.904 0 0 0-1.888-2.334l-.501-.626a1.22 1.22 0 0 1-.185-.236ZM118.803 84.019a.883.883 0 0 1-.105.23l-.336.627c-.155.27-.335.6-.531 1.001-.195.401-.436.832-.661 1.338-.501 1.001-1.002 2.214-1.503 3.586a39.084 39.084 0 0 0-2.083 9.252 40.37 40.37 0 0 0-.191 3.876c0 .551 0 1.052.025 1.503.025.451.03.817.05 1.127.02.311.025.501.035.711a.662.662 0 0 1 0 .251 1.135 1.135 0 0 1-.045-.246c-.025-.19-.05-.425-.085-.711a15.047 15.047 0 0 1-.095-1.127c-.02-.441-.065-.942-.065-1.503a36.423 36.423 0 0 1 2.234-13.208c.449-1.223.966-2.42 1.548-3.587.235-.5.501-.936.701-1.327.2-.39.401-.716.566-1.002.165-.285.28-.44.381-.606a.97.97 0 0 1 .16-.185ZM128.64 85.962c.025.03-.415.356-1.082.937a18.454 18.454 0 0 0-4.267 5.36c-.203.434-.428.857-.676 1.267a5.72 5.72 0 0 1 .5-1.353 15.504 15.504 0 0 1 1.844-2.955 15.08 15.08 0 0 1 2.469-2.46 5.56 5.56 0 0 1 1.212-.796ZM86.816 98.735c.437.205.847.463 1.222.766a17.301 17.301 0 0 1 2.585 2.345 16.943 16.943 0 0 1 2.063 2.81c.265.404.479.84.636 1.297a13.93 13.93 0 0 1-.79-1.202 22.498 22.498 0 0 0-2.105-2.735 22.782 22.782 0 0 0-2.504-2.37c-.388-.28-.758-.584-1.107-.91ZM84.276 94.077c-.04.07-1.062-.501-2.444-.852-1.383-.35-2.55-.355-2.55-.436a7.263 7.263 0 0 1 5.01 1.288h-.016Z" fill="#FF725E"/><path fill-rule="evenodd" clip-rule="evenodd" d="M73.968 78.399c.073-.29.184-.57.33-.832l-.455-.69.951-1.003.707.426c.258-.152.534-.271.821-.355l.17-.807 1.368-.025.195.806c.29.073.57.183.832.326l.69-.45 1.003.95-.431.707c.157.256.276.532.355.822l.812.165v1.372l-.802.196a3.393 3.393 0 0 1-.33.826l.456.697-.952 1.001-.711-.43a3.133 3.133 0 0 1-.817.355l-.185.797h-1.367l-.196-.802a3.426 3.426 0 0 1-.831-.33l-.692.45-1.001-.951.43-.707a3.131 3.131 0 0 1-.355-.816l-.812-.17v-1.368l.802-.195.015.035Zm1.803.776a1.468 1.468 0 1 0 1.443-1.502 1.468 1.468 0 0 0-1.438 1.502h-.005Z" fill="#FF725E"/><path fill-rule="evenodd" clip-rule="evenodd" d="M131.355 115.41c.054-.213.135-.419.24-.611l-.335-.501.706-.726.501.315c.188-.112.39-.199.601-.26l.125-.596h1.002l.145.596c.214.051.42.132.611.24l.501-.335.727.706-.316.501c.113.188.2.39.261.601l.596.125v1.002l-.596.145a2.592 2.592 0 0 1-.241.611l.331.501-.702.726-.5-.315c-.19.113-.394.2-.606.26l-.121.596h-1.001l-.146-.591a2.589 2.589 0 0 1-.611-.24l-.501.33-.706-.676.316-.501a2.467 2.467 0 0 1-.261-.606l-.596-.125v-1.002l.596-.145-.02-.025Zm1.332.571a1.091 1.091 0 0 0 .685.989 1.071 1.071 0 0 0 .828-.014 1.08 1.08 0 0 0 .322-1.77 1.083 1.083 0 0 0-1.835.795Z" fill="#455A64"/><path d="m121.301 72.098-2.241 4.719 2.135 1.014 2.242-4.719-2.136-1.014Z" fill="#E0E0E0"/><path d="M119.048 76.821c.211.07.416.151.616.246.381.16.917.39 1.558.68l-.125.046a352.64 352.64 0 0 1 2.209-4.734c-.055-.155.075.216.06.176h-.065l-.07-.03-.14-.07-.281-.13-.541-.261-1.032-.501.166-.055a198.953 198.953 0 0 1-1.643 3.326c-.201.38-.366.706-.501.977a2.277 2.277 0 0 1-.206.36c.03-.118.074-.232.131-.34.115-.271.26-.597.425-.977.376-.847.917-2.054 1.573-3.451l.055-.116.11.055 1.037.501.546.256.276.13.14.07.07.03h.07c0-.04.115.33.06.176a266.881 266.881 0 0 1-2.274 4.703l-.04.085-.085-.045a55.477 55.477 0 0 1-1.563-.796 3.889 3.889 0 0 1-.536-.31Z" fill="#263238"/><path d="M123.231 70.605a2.174 2.174 0 0 0-2.9 1.032l3.937 1.873a2.189 2.189 0 0 0 .084-1.668 2.183 2.183 0 0 0-1.121-1.237Z" fill="#E0E0E0"/><path d="M123.231 70.605a.6.6 0 0 1 .245.09 2.14 2.14 0 0 1 1.062 1.453c.103.477.047.975-.16 1.417l-.045.11-.115-.05-1.969-.926-1.974-.967-.11-.05.055-.11c.219-.432.57-.783 1.002-1.002.336-.172.71-.255 1.087-.24.241.005.479.056.701.15.156.07.231.12.221.13a4.245 4.245 0 0 0-.922-.135 2.114 2.114 0 0 0-1.002.275 2.082 2.082 0 0 0-.881.947l-.055-.16 1.973.926 1.964.942-.161.06c.194-.398.257-.847.181-1.282a2.185 2.185 0 0 0-.416-.942 4.024 4.024 0 0 0-.681-.636Z" fill="#263238"/><path d="M123.281 71.852a1.377 1.377 0 0 0-.431-1.402" fill="#E0E0E0"/><path d="M122.85 70.45c.035-.066.401.135.541.6.14.466-.045.832-.11.802-.065-.03 0-.356-.135-.726-.136-.37-.341-.616-.296-.676ZM120.877 72.769c.4.104.784.262 1.142.47.395.131.771.315 1.117.547a2.346 2.346 0 0 1-1.223-.31c-.641-.287-1.076-.652-1.036-.707ZM120.611 73.32c.403.117.788.285 1.147.5.394.13.768.312 1.112.542a2.264 2.264 0 0 1-1.222-.306c-.636-.32-1.097-.676-1.037-.736ZM120.351 73.876c.4.103.784.262 1.142.47.395.132.77.316 1.117.546-.428.011-.85-.094-1.222-.305-.642-.29-1.077-.656-1.037-.711ZM120.085 74.427a4.87 4.87 0 0 1 1.148.5c.393.13.767.312 1.111.542a2.266 2.266 0 0 1-1.222-.306c-.636-.31-1.072-.676-1.037-.736ZM119.82 74.983c.402.105.787.263 1.147.47.394.135.769.318 1.117.546a3.58 3.58 0 0 1-2.264-1.001v-.015ZM119.549 75.539c.402.103.788.261 1.147.47a4.6 4.6 0 0 1 1.112.546 3.62 3.62 0 0 1-2.259-1.001v-.015ZM119.294 76.09a4.78 4.78 0 0 1 1.147.5c.393.13.767.312 1.112.542a2.243 2.243 0 0 1-1.217-.306c-.641-.31-1.082-.676-1.042-.736Z" fill="#263238"/><path d="m71.88 112.781-4.757 2.158.977 2.153 4.757-2.158-.977-2.153Z" fill="#E0E0E0"/><path d="M72.851 114.934a5.638 5.638 0 0 1-.31-.586c-.186-.366-.446-.887-.752-1.503l.125.045a368.636 368.636 0 0 1-4.738 2.189c-.06.156.075-.21.065-.17v.035l.03.07.065.14.126.281c.085.185.165.366.25.546l.466 1.047-.166-.06c1.368-.611 2.55-1.117 3.406-1.503l1.002-.421c.126-.059.257-.108.391-.145a1.481 1.481 0 0 1-.316.18l-.956.471c-.832.401-2.004.977-3.431 1.623l-.116.05-.05-.115c-.155-.331-.31-.681-.5-1.037-.086-.18-.166-.366-.251-.551l-.125-.275-.065-.146-.035-.07V114.969l.065-.17a271.68 271.68 0 0 1 4.773-2.124l.085-.04.04.085c.296.691.526 1.247.677 1.623.103.187.185.386.245.591Z" fill="#263238"/><path d="M65.658 116.993a2.18 2.18 0 0 0 2.885 1.087l-1.803-3.973a2.178 2.178 0 0 0-1.082 2.886Z" fill="#E0E0E0"/><path d="M65.658 116.993s-.06-.07-.13-.221a2.049 2.049 0 0 1-.135-.711c-.009-.377.081-.75.26-1.082.23-.436.593-.788 1.037-1.002l.11-.05.05.11c.286.616.592 1.283.912 2.004.32.721.611 1.367.892 2.004l.05.11-.11.05a2.264 2.264 0 0 1-1.423.13 2.14 2.14 0 0 1-1.002-.501c-.18-.16-.33-.352-.44-.566-.076-.155-.1-.24-.086-.245.177.257.384.492.616.701a2.135 2.135 0 0 0 2.22.275l-.06.161-.912-2.004c-.31-.701-.611-1.367-.892-2.003l.16.06a2.122 2.122 0 0 0-1.252 1.848c.01.315.056.627.135.932Z" fill="#263238"/><path d="M66.424 116.011a1.373 1.373 0 0 0-.576 1.347" fill="#E0E0E0"/><path d="M65.848 117.358c-.065.03-.22-.365-.03-.806.19-.441.581-.606.606-.541.025.065-.215.28-.365.641s-.135.691-.21.706ZM68.854 116.862a4.492 4.492 0 0 1-.571-1.096 4.71 4.71 0 0 1-.501-1.138 3.574 3.574 0 0 1 1.072 2.234ZM69.41 116.612a4.808 4.808 0 0 1-.572-1.102 4.911 4.911 0 0 1-.5-1.132c.055-.045.43.386.731 1.002.23.369.348.797.34 1.232ZM69.96 116.357a4.629 4.629 0 0 1-.57-1.097 4.72 4.72 0 0 1-.501-1.137 3.568 3.568 0 0 1 1.072 2.234ZM70.527 116.106a4.934 4.934 0 0 1-.571-1.102 4.8 4.8 0 0 1-.5-1.137c.328.262.581.608.73 1.002.23.371.349.8.341 1.237ZM71.088 115.851a4.592 4.592 0 0 1-.571-1.102 4.725 4.725 0 0 1-.501-1.132 3.57 3.57 0 0 1 1.072 2.234ZM71.644 115.595a4.7 4.7 0 0 1-.571-1.097 4.786 4.786 0 0 1-.501-1.137c.33.262.582.608.731 1.002.23.369.348.797.34 1.232ZM72.205 115.345a20.159 20.159 0 0 1-1.072-2.234c.055-.045.436.385.736 1.002.226.371.342.798.336 1.232Z" fill="#263238"/><path d="M82.243 53.89s6.066 6.01 7.578 9.733a78.835 78.835 0 0 1 2.39 6.877s1.562-2.735 3.32 0c1.758 2.735 10.068 35.949 11.436 48.451h5.294s-2.464-20.902-3.636-23.246c-1.172-2.344-2.154-3.126-2.154-3.126s-1.368-8.795-2.344-10.163a6.598 6.598 0 0 0-2.149-1.953s-1.758-9.572-4.298-11.521c-2.54-1.948-4.508-.977-4.508-.977S91.57 57.707 82.242 53.89Z" fill="#FF725E"/><path d="M131.906 98.28c-1.194.319-2.365.717-3.506 1.191a29.178 29.178 0 0 0-3.211 1.864c.229-.29.503-.54.812-.742a12.07 12.07 0 0 1 4.818-2.189 3.63 3.63 0 0 1 1.087-.125Z" fill="#455A64"/><path d="M131.701 97.207a36.45 36.45 0 0 0-3.536 1.573c-1.869 1.032-3.146 2.229-3.201 2.164.227-.308.497-.583.801-.816a14.03 14.03 0 0 1 2.274-1.573 13.47 13.47 0 0 1 2.54-1.092 3.94 3.94 0 0 1 1.122-.256ZM130.674 99.782c0 .08-1.102.095-2.399.471s-2.249.926-2.289.861a6.65 6.65 0 0 1 4.688-1.332Z" fill="#455A64"/><path d="M118.988 118.901c-.886-7.012 1.418-15.237 7.013-19.174l1.332 1.087s-6.967 4.147-6.456 18.137" fill="#263238"/><path d="M90.202 108.798c-.93.32-1.83.72-2.69 1.197a17.513 17.513 0 0 0-2.284 1.858 6.916 6.916 0 0 1 4.974-3.055ZM90.062 108.177c-.888.402-1.797.753-2.725 1.052-.898.386-1.818.721-2.755 1.002.835-.517 1.73-.931 2.665-1.233.9-.388 1.846-.664 2.815-.821Z" fill="#455A64"/><path d="m105.494 120.629-2.424-.631a5.391 5.391 0 0 0-.087-3.059 5.392 5.392 0 0 0-1.741-2.516 4.616 4.616 0 0 1-2.66 3.571 3.929 3.929 0 0 1-3.331-.21 3.469 3.469 0 0 1-1.818-2.364 3.938 3.938 0 0 1 1.938-4.007 4.898 4.898 0 0 1 1.833-.621 1.753 1.753 0 0 0-.18-.146 6.702 6.702 0 0 0-7.553-.205l-1.413-2.069a9.185 9.185 0 0 1 10.489.281 7.478 7.478 0 0 1 2.179 2.614 7.93 7.93 0 0 1 4.768 9.377v-.015Zm-7.483-7.408a2.671 2.671 0 0 0-1.383.336 1.463 1.463 0 0 0-.761 1.377 1.04 1.04 0 0 0 .546.646 1.46 1.46 0 0 0 1.187.1 2.252 2.252 0 0 0 1.162-2.294v-.1a4.206 4.206 0 0 0-.751-.065Z" fill="#263238"/><path d="M85.158 74.116c.235.097.46.216.671.356.426.24 1.002.621 1.743 1.117.841.59 1.652 1.222 2.43 1.893a31.056 31.056 0 0 1 5.044 5.58 29.208 29.208 0 0 1 1.637 2.6c.426.766.747 1.397.942 1.848.118.224.214.459.286.701a4.011 4.011 0 0 1-.376-.656 42.507 42.507 0 0 0-1.002-1.798 33.39 33.39 0 0 0-1.673-2.56 33.662 33.662 0 0 0-5.009-5.51 30.593 30.593 0 0 0-2.359-1.948c-.676-.5-1.282-.916-1.693-1.182a4.305 4.305 0 0 1-.641-.44Z" fill="#FF725E"/><path d="M76.683 129.926h.425v25.3h-.425a4.506 4.506 0 0 1-4.508-4.508v-16.304a4.509 4.509 0 0 1 4.508-4.488ZM149.538 129.926h.471a4.448 4.448 0 0 1 4.448 4.448v16.409a4.448 4.448 0 0 1-4.448 4.448h-.471v-25.305Z" fill="#263238"/><path d="M143.572 124.987H82.889a7.072 7.072 0 0 0-7.073 7.073v40.948a7.072 7.072 0 0 0 7.073 7.072h60.683a7.073 7.073 0 0 0 7.073-7.072V132.06a7.073 7.073 0 0 0-7.073-7.073Z" fill="#FF725E"/><path d="M122.75 130.837a17.15 17.15 0 0 0-17.146 17.146h34.297a17.14 17.14 0 0 0-5.024-12.126 17.143 17.143 0 0 0-12.127-5.02Z" fill="#fff"/><path d="M136.58 147.156h1.843a3.39 3.39 0 0 1 .766.051 3.956 3.956 0 0 1-.761.055h-4.253a.879.879 0 0 1-.205 0 .588.588 0 0 1 .205 0l.561-.025 1.844-.081ZM135.367 141.972c1.303-.621 2.385-1.057 2.42-1.002.035.055-1.002.622-2.314 1.208-.781.394-1.589.728-2.42 1.001a17.712 17.712 0 0 1 2.314-1.207ZM132.152 137.735c.951-1.082 1.773-1.914 1.838-1.859.065.055-.676.967-1.648 2.029a16.926 16.926 0 0 1-1.838 1.853 17.469 17.469 0 0 1 1.648-2.023ZM127.564 135.025c.25-.836.594-1.641 1.026-2.399.081.03-.27 1.142-.786 2.504-.285.824-.63 1.626-1.032 2.399.2-.854.464-1.691.792-2.504ZM122.309 134.133c0-1.442.04-2.609.125-2.609.085 0 .141 1.167.131 2.609a16.99 16.99 0 0 1-.131 2.61 16.617 16.617 0 0 1-.125-2.61ZM117.07 135.115c-.501-1.347-.872-2.459-.792-2.505.08-.045.541 1.042 1.002 2.4.331.812.596 1.649.791 2.504a17.526 17.526 0 0 1-1.001-2.399ZM112.537 137.905c-.972-1.062-1.713-1.969-1.648-2.029.065-.06.886.777 1.838 1.859a17.47 17.47 0 0 1 1.648 2.003 16.92 16.92 0 0 1-1.838-1.833ZM109.396 142.208c-1.317-.591-2.354-1.132-2.319-1.212.035-.081 1.122.36 2.424 1.001.801.345 1.574.748 2.314 1.207a17.5 17.5 0 0 1-2.419-.996ZM108.304 147.282h-1.848a3.956 3.956 0 0 1-.761-.055c.252-.046.509-.063.766-.05h1.843l1.844.03.561.025a.56.56 0 0 1 .2 0 .836.836 0 0 1-.2 0h-.561l-1.844.05Z" fill="#E0E0E0"/><path d="M94.159 133.843a2.276 2.276 0 0 1-1.404 2.109 2.285 2.285 0 0 1-2.485-.491 2.28 2.28 0 1 1 3.889-1.618Z" fill="#fff"/><path d="M94.159 140.705a2.282 2.282 0 0 1-1.404 2.109 2.285 2.285 0 0 1-2.485-.491 2.276 2.276 0 0 1 .343-3.508 2.284 2.284 0 0 1 2.876.282c.428.426.668 1.004.67 1.608Z" fill="#455A64"/><path d="M137.296 175.327v-1.653c0-1.087 0-2.67-.025-4.699 0-4.072-.03-9.942-.05-17.18l.095.095-46.668.035.13-.13v23.542l-.125-.12 33.52.055 9.667.035h3.486-3.431l-9.642.035-33.6.06h-.155V151.604h.135l46.668.035h.1v.096c-.025 7.263-.04 13.153-.055 17.235v5.891c0 .28-.05.466-.05.466ZM83.535 179.97h59.391v.296a3.129 3.129 0 0 1-3.12 3.12H86.661a3.121 3.121 0 0 1-3.12-3.12v-.296h-.006Z" fill="#263238"/><path d="M132.307 155.096a1.407 1.407 0 0 0 .967 1.502 1.559 1.559 0 0 0 1.698-.621 1.744 1.744 0 0 0 0-1.838c.018.427-.121.846-.391 1.177a1.285 1.285 0 0 1-1.132.441 1.007 1.007 0 0 1-.846-.822" fill="#000" opacity=".3"/><path d="M134.982 154.54a1.388 1.388 0 1 1-2.776.007 1.388 1.388 0 0 1 2.776-.007Z" fill="#E0E0E0"/><path d="M134.982 154.54a2.67 2.67 0 0 1-.09-.326 1.394 1.394 0 0 0-.501-.701 1.305 1.305 0 0 0-1.212-.16 1.264 1.264 0 0 0-.598 1.909 1.272 1.272 0 0 0 1.224.535c.211-.028.412-.107.586-.231a1.39 1.39 0 0 0 .501-.701c.024-.11.054-.219.09-.325 0 0 .045.125 0 .35a1.355 1.355 0 0 1-.501.822 1.463 1.463 0 0 1-2.125-.31 1.505 1.505 0 0 1 0-1.725c.177-.253.427-.445.717-.55a1.465 1.465 0 0 1 1.408.241c.262.203.44.495.501.821.045.225.015.351 0 .351Z" fill="#263238"/><path d="M134.235 153.949c.025.07-.3.24-.606.561-.305.32-.466.646-.536.621-.07-.025 0-.436.351-.807.351-.37.776-.445.791-.375Z" fill="#263238"/><path d="M134.236 154.97c-.061.04-.291-.21-.632-.435-.34-.226-.661-.351-.646-.426.015-.075.406-.055.792.21.385.266.546.621.486.651Z" fill="#263238"/><path d="M132.953 172.226a1.42 1.42 0 0 0 .972 1.503 1.559 1.559 0 0 0 1.698-.621 1.74 1.74 0 0 0 .025-1.833c.018.426-.123.844-.396 1.172a1.269 1.269 0 0 1-1.127.44 1 1 0 0 1-.851-.816" fill="#000" opacity=".3"/><path d="M134.251 173.048a1.383 1.383 0 1 0-.001-2.765 1.383 1.383 0 0 0 .001 2.765Z" fill="#E0E0E0"/><path d="M135.633 171.665c-.025 0-.03-.12-.095-.325a1.37 1.37 0 0 0-.501-.702 1.315 1.315 0 0 0-1.212-.16 1.269 1.269 0 0 0-.804 1.282 1.267 1.267 0 0 0 .503.919 1.274 1.274 0 0 0 1.513.013c.239-.173.415-.419.501-.701.065-.201.07-.326.095-.326.025 0 .045.125 0 .351a1.367 1.367 0 0 1-.501.826 1.474 1.474 0 0 1-.673.301 1.477 1.477 0 0 1-.734-.065 1.505 1.505 0 0 1 0-2.825 1.5 1.5 0 0 1 1.407.24c.262.203.44.496.501.822.045.23.015.355 0 .35Z" fill="#263238"/><path d="M134.887 171.074c.025.07-.306.241-.606.561-.301.321-.466.646-.541.626-.076-.02 0-.44.35-.806.351-.366.782-.446.797-.381Z" fill="#263238"/><path d="M134.887 172.096c-.065.045-.296-.21-.636-.436-.341-.225-.657-.35-.642-.426.015-.075.401-.055.792.211.391.265.546.621.486.651Z" fill="#263238"/><path d="M92.691 155.076a1.418 1.418 0 0 0 .972 1.502 1.562 1.562 0 0 0 1.698-.626 1.746 1.746 0 0 0 0-1.833c.019.428-.123.847-.396 1.177a1.276 1.276 0 0 1-1.127.441 1.002 1.002 0 0 1-.851-.822" fill="#000" opacity=".3"/><path d="M93.984 155.902a1.382 1.382 0 1 0 0-2.765 1.382 1.382 0 0 0 0 2.765Z" fill="#E0E0E0"/><path d="M95.371 154.52s-.03-.126-.095-.326a1.335 1.335 0 0 0-.5-.701 1.292 1.292 0 0 0-1.208-.16 1.265 1.265 0 0 0-.598 1.909 1.273 1.273 0 0 0 1.224.534c.211-.027.412-.106.586-.23.24-.172.415-.419.501-.701.065-.2.07-.325.095-.325a.605.605 0 0 1 0 .35 1.38 1.38 0 0 1-.5.822 1.473 1.473 0 0 1-1.408.24 1.5 1.5 0 0 1-.99-1.412 1.504 1.504 0 0 1 .99-1.413 1.47 1.47 0 0 1 1.407.241c.26.204.438.496.501.821a.607.607 0 0 1-.005.351Z" fill="#263238"/><path d="M94.625 153.929c0 .07-.306.24-.606.561-.3.32-.466.646-.541.621-.075-.025 0-.441.35-.807.351-.365.782-.425.797-.375Z" fill="#263238"/><path d="M94.625 154.95c-.065.04-.296-.21-.636-.435-.341-.226-.657-.351-.642-.426.016-.075.401-.055.792.205.39.261.546.621.486.656Z" fill="#263238"/><path d="M92.401 172.056a1.401 1.401 0 0 0 .967 1.503 1.56 1.56 0 0 0 1.698-.622 1.735 1.735 0 0 0 0-1.833c.017.426-.121.843-.39 1.172a1.278 1.278 0 0 1-1.133.446 1 1 0 0 1-.847-.821" fill="#000" opacity=".3"/><path d="M93.693 172.877a1.382 1.382 0 1 0 0-2.765 1.382 1.382 0 0 0 0 2.765Z" fill="#E0E0E0"/><path d="M95.076 171.495s0-.12-.09-.326a1.44 1.44 0 0 0-.502-.701 1.314 1.314 0 0 0-.586-.231 1.32 1.32 0 0 0-.626.071 1.277 1.277 0 0 0-.73.75 1.273 1.273 0 0 0 1.942 1.464c.237-.175.413-.421.501-.702.024-.11.054-.218.09-.325 0 0 .046.125 0 .351-.06.327-.238.621-.5.826a1.499 1.499 0 0 1-1.408.24 1.502 1.502 0 0 1 0-2.83 1.512 1.512 0 0 1 1.408.241c.262.205.44.499.5.826.046.226.016.351 0 .346Z" fill="#263238"/><path d="M94.33 170.909c0 .07-.301.24-.607.561-.305.32-.466.646-.536.626-.07-.02 0-.441.35-.806.351-.366.777-.451.792-.381Z" fill="#263238"/><path d="M94.33 171.911c-.06.04-.291-.216-.632-.441-.34-.226-.661-.351-.646-.426.015-.075.406-.055.791.21.386.266.546.657.486.657Z" fill="#263238"/><path d="M90.623 175.457c5.42 1.177 11.751 1.222 17.606.937 2.815-.141 5.906-.316 8.16 1.382.5.371 1.071.857 1.652.641.842-.315.872-1.858 1.774-1.888.45 0 .796.416.941.841.093.441.23.871.411 1.283.23.39.776.651 1.137.375.571-.435-.09-1.372.125-2.058.216-.687 1.238-.767 1.929-.501.691.265 1.362.771 2.098.661a4.107 4.107 0 0 0 1.418-.726c1.317-.807 2.945-.852 4.508-.882 1.628-.025 3.306-.18 4.934-.21l-46.693.145Z" fill="#000" opacity=".3"/><path d="M127.949 157.78a1.108 1.108 0 0 1-.255.091c-.247.066-.49.148-.726.245-.871.355-1.692.819-2.445 1.383-.977.681-2.053 1.622-3.421 2.454a7.822 7.822 0 0 1-2.319.967c-.882.158-1.779.225-2.675.2-1.828 0-3.426.741-4.808 1.503-1.383.761-2.65 1.422-3.637 2.088a13.143 13.143 0 0 0-2.174 1.784c-.466.5-.681.776-.701.761-.02-.015.04-.08.14-.225a7.11 7.11 0 0 1 .501-.607 11.973 11.973 0 0 1 2.144-1.863 39.049 39.049 0 0 1 3.626-2.154 16.68 16.68 0 0 1 2.265-1.052 7.77 7.77 0 0 1 2.649-.475c.881.024 1.762-.039 2.63-.191a7.93 7.93 0 0 0 2.254-.921c1.342-.807 2.439-1.734 3.436-2.4a10.337 10.337 0 0 1 2.505-1.327c.242-.089.492-.156.746-.2a1.01 1.01 0 0 1 .265-.061ZM116.073 161.748a6.554 6.554 0 0 1-1.453-.226 21.85 21.85 0 0 1-3.391-1.052 21.407 21.407 0 0 1-3.175-1.583 6.215 6.215 0 0 1-1.208-.846c.446.204.879.433 1.298.686a29.924 29.924 0 0 0 6.511 2.62c.482.1.955.234 1.418.401Z" fill="#263238"/><path d="M123.606 145.398c.386-.205 11.641-3.826 11.641-3.826l-10.759 6.01-.882-2.184Z" fill="#FF725E"/><path d="M122.434 144.181a3.813 3.813 0 0 0-3.517 2.35 3.813 3.813 0 0 0-.289 1.457h7.613a3.795 3.795 0 0 0-1.115-2.692 3.802 3.802 0 0 0-2.692-1.115ZM84.161 179.97c-.075 0-.13-12.232-.13-27.319s.055-27.323.13-27.323c.075 0 .13 12.231.13 27.323s-.06 27.319-.13 27.319ZM143.692 179.97c-.075 0-.13-12.232-.13-27.319s.055-27.323.13-27.323c.076 0 .131 12.231.131 27.323s-.06 27.319-.131 27.319ZM81.662 132.741a.586.586 0 1 0-.001-1.173.586.586 0 0 0 0 1.173ZM81.662 143.7a.586.586 0 1 0 0-1.172.586.586 0 0 0 0 1.172ZM81.662 154.665a.586.586 0 1 0-.001-1.173.586.586 0 0 0 0 1.173ZM81.662 165.629a.586.586 0 1 0 0-1.172.586.586 0 0 0 0 1.172ZM81.662 176.589a.586.586 0 1 0 0-1.172.586.586 0 0 0 0 1.172ZM146.753 132.741a.587.587 0 1 0-.002-1.174.587.587 0 0 0 .002 1.174ZM146.753 143.7a.586.586 0 1 0 0-1.172.586.586 0 0 0 0 1.172ZM146.753 154.665a.587.587 0 1 0-.002-1.174.587.587 0 0 0 .002 1.174ZM146.753 165.629a.586.586 0 1 0 0-1.172.586.586 0 0 0 0 1.172ZM146.753 176.589a.586.586 0 1 0 0-1.172.586.586 0 0 0 0 1.172Z" fill="#263238"/><path d="M124.258 118.951H98.662v6.031h25.596v-6.031Z" fill="#455A64"/><path d="M100.515 124.987a16.055 16.055 0 0 1-.13-2.915 16.011 16.011 0 0 1 .13-2.911c.129.965.172 1.939.13 2.911.042.973-.001 1.949-.13 2.915ZM103.135 124.987a16.615 16.615 0 0 1-.13-2.915 16.57 16.57 0 0 1 .13-2.911c.132.965.175 1.939.13 2.911.045.973.002 1.949-.13 2.915ZM105.765 124.987a16.616 16.616 0 0 1-.131-2.915 16.57 16.57 0 0 1 .131-2.911c.128.965.172 1.939.13 2.911.042.973-.002 1.949-.13 2.915ZM108.394 124.987a16.146 16.146 0 0 1-.13-2.915 16.102 16.102 0 0 1 .13-2.911c.129.965.173 1.939.13 2.911.042.973-.001 1.949-.13 2.915ZM111.034 124.987a16.712 16.712 0 0 1-.13-2.915 16.57 16.57 0 0 1 .13-2.911c.132.965.175 1.939.13 2.911.045.973.002 1.949-.13 2.915ZM113.649 124.987a16.616 16.616 0 0 1-.131-2.915 16.57 16.57 0 0 1 .131-2.911c.128.965.172 1.939.13 2.911.042.973-.002 1.949-.13 2.915ZM116.279 124.987a16.056 16.056 0 0 1-.131-2.915 16.012 16.012 0 0 1 .131-2.911c.128.965.172 1.939.13 2.911.042.973-.002 1.949-.13 2.915ZM118.903 124.987a16.712 16.712 0 0 1-.13-2.915c-.042-.972.002-1.946.13-2.911.132.965.176 1.939.131 2.911.045.973.001 1.949-.131 2.915ZM121.553 124.987a16.713 16.713 0 0 1-.131-2.915 16.57 16.57 0 0 1 .131-2.911c.128.965.172 1.939.13 2.911.042.973-.002 1.949-.13 2.915Z" fill="#263238"/><path d="M154.451 138.06c.622 3.136 1.198 6.091 1.814 9.227-.604.041-1.21.041-1.814 0v-9.222" fill="#000" opacity=".3"/><path d="M77.55 130.862c.07 0 0 9.357-.176 20.893-.175 11.535-.356 20.887-.43 20.887-.076 0 0-9.352.17-20.892.17-11.541.36-20.888.435-20.888ZM88.439 173.914c-.075 0-.13-4.658-.13-10.403 0-5.746.055-10.404.13-10.404.075 0 .13 4.658.13 10.404 0 5.745-.075 10.403-.13 10.403ZM137.632 126.67c0 .075-11.486.13-25.646.13s-25.646-.055-25.646-.13c0-.075 11.48-.13 25.646-.13 14.165 0 25.646.06 25.646.13Z" fill="#fff"/><path d="M213.026 220.578c0 .07-47.685.13-106.495.13s-106.505-.06-106.505-.13c0-.071 47.675-.131 106.505-.131s106.495.05 106.495.131Z" fill="#263238"/></svg>